# xmcd CD database file generated by LOLA_Freedb v0.9beta0
# 
# Track frame offsets:
#      150
#      22184
#      47651
#      73376
#      93341
#      113885
#      132488
# 
# Disc length: 2075 seconds
# 
# Revision: 0 
# Processed by: cddbd v1.5.2PL0 Copyright (c) Steve Scherf et al.
# Submitted via: LOLA_Freedb v0.9beta0
# 
DISCID=66081907
DTITLE=Watsonian Institute - E.D.P. Extra Disco Perception
DYEAR=1979
DGENRE=
TTITLE0=New York, New York
TTITLE1=Lil' Sis
TTITLE2=Pretty Brown Doll
TTITLE3=Disco Boogie
TTITLE4=Follow Me
TTITLE5=Rock
TTITLE6=Pretty Miss "T"
EXTD=
EXTT0=
EXTT1=
EXTT2=
EXTT3=
EXTT4=
EXTT5=
EXTT6=
PLAYORDER=
